<svg xmlns="http://www.w3.org/2000/svg" width="313.501" height="64.5" viewBox="0 0 313.501 64.5">
  <g id="Group_1" data-name="Group 1" transform="translate(-313.499 -284)">
    <path id="map" d="M17.005,58.766c.017.011.039.006.055.017a.939.939,0,0,0,.425.118.92.92,0,0,0,.243-.033l20-5.459,20,5.459a.92.92,0,0,0,.243.033.906.906,0,0,0,.423-.12c.018-.009.039-.006.055-.017L75.024,48.641a.922.922,0,0,0,.4-1.036L66.255,15.393a.918.918,0,0,0-.534-.6.938.938,0,0,0-.8.048l-9.133,5.124a.921.921,0,1,0,.9,1.605L64.8,17.015l8.664,30.418L58.716,56.45l-3.5-28.035a.931.931,0,0,0-1.029-.8.921.921,0,0,0-.8,1.027l3.51,28.086L38.653,51.751V46.726a.92.92,0,1,0-1.841,0v5.025L18.57,56.73l3.51-28.086a.921.921,0,0,0-1.828-.228l-3.5,28.035L2,47.435,10.66,17.019l8.115,4.556a.921.921,0,1,0,.9-1.605l-9.135-5.126A.919.919,0,0,0,9.21,15.4L.036,47.606a.916.916,0,0,0,.4,1.036L17.005,58.766Zm20.1-15.754a.923.923,0,0,0,1.242.006c.613-.558,15.027-13.785,15.027-27.372a15.645,15.645,0,1,0-31.291,0C22.087,29,36.5,42.445,37.109,43.012Zm.624-41.171a13.5,13.5,0,0,1,13.8,13.8c0,11.222-11.031,22.708-13.8,25.414-2.763-2.737-13.81-14.374-13.81-25.414a13.5,13.5,0,0,1,13.8-13.8Zm8.283,13.8a8.283,8.283,0,1,0-8.283,8.283A8.293,8.293,0,0,0,46.015,15.645Zm-8.283,6.442a6.442,6.442,0,1,1,6.442-6.442A6.449,6.449,0,0,1,37.733,22.088Z" transform="translate(315.029 288.1)" fill="#375fff" stroke="#375fff" stroke-linejoin="bevel" stroke-width="3"/>
    <rect id="Rectangle_2" data-name="Rectangle 2" width="44" height="34" transform="translate(383 295)" fill="#fff"/>
    <text id="Pe-Tik" transform="translate(383 325)" fill="#375fff" font-size="42" font-family="Montserrat-Black, Montserrat" font-weight="800" letter-spacing="0.399em"><tspan x="0" y="0">Pe-Tik</tspan></text>
    <rect id="Rectangle_1" data-name="Rectangle 1" width="234" height="1" transform="translate(390 331)" fill="none" stroke="#375fff" stroke-width="4"/>
    <text id="INFORMASI_PETA_KONFLIK_NTT" data-name="INFORMASI PETA KONFLIK NTT" transform="translate(393 345)" fill="#375fff" font-size="13" font-family="Montserrat-Black, Montserrat" font-weight="800" letter-spacing="0.048em"><tspan x="0" y="0">INFORMASI PETA KONFLIK NTT</tspan></text>
  </g>
</svg>
