<svg xmlns="http://www.w3.org/2000/svg" width="187.477" height="39" viewBox="0 0 187.477 39"><g transform="translate(-337.523 -304)"><path d="M10.473,36.192c.01.007.024,0,.034.01a.579.579,0,0,0,.262.073.567.567,0,0,0,.15-.02l12.32-3.362,12.32,3.362a.567.567,0,0,0,.15.02.558.558,0,0,0,.261-.074c.011-.006.024,0,.034-.01l10.2-6.235a.568.568,0,0,0,.249-.638L40.8,9.48a.565.565,0,0,0-.329-.37.577.577,0,0,0-.494.029L34.357,12.3a.567.567,0,1,0,.557.988l5-2.806,5.336,18.734-9.086,5.553L34,17.5a.574.574,0,0,0-.634-.492.567.567,0,0,0-.492.633l2.162,17.3L23.805,31.872V28.778a.567.567,0,0,0-1.134,0v3.095L11.437,34.939l2.162-17.3a.567.567,0,0,0-1.126-.141L10.316,34.766,1.23,29.214,6.566,10.481l5,2.806a.567.567,0,1,0,.557-.988L6.494,9.141a.566.566,0,0,0-.822.34L.023,29.319a.564.564,0,0,0,.249.638l10.2,6.235Zm12.381-9.7a.569.569,0,0,0,.765,0C24,26.15,32.874,18,32.874,9.636a9.636,9.636,0,1,0-19.271,0C13.6,17.859,22.477,26.141,22.854,26.49Zm.384-25.356a8.316,8.316,0,0,1,8.5,8.5c0,6.912-6.794,13.985-8.5,15.652-1.7-1.686-8.505-8.852-8.505-15.652a8.316,8.316,0,0,1,8.5-8.5Zm5.1,8.5a5.1,5.1,0,1,0-5.1,5.1A5.107,5.107,0,0,0,28.34,9.636Zm-5.1,3.968a3.968,3.968,0,1,1,3.968-3.968A3.972,3.972,0,0,1,23.239,13.6Z" transform="translate(337.523 306.725)" fill="#375fff"/><text transform="translate(377 328)" fill="#375fff" stroke="#fff" stroke-width="1" font-size="24" font-family="Montserrat-Bold, Montserrat" font-weight="700" letter-spacing="0.141em"><tspan x="0" y="0">PERANKO</tspan></text><rect width="137" height="1" transform="translate(382 330)" fill="#375fff"/><text transform="translate(385 338)" fill="#375fff" font-size="6" font-family="Montserrat-Bold, Montserrat" font-weight="700" letter-spacing="0.068em"><tspan x="0" y="0">INFORMASI PETA RAWAN KONFLIK NTT</tspan></text></g></svg>